<?xml version="1.0" encoding="utf-8"?>
<!-- Generator: Adobe Illustrator 27.5.0, SVG Export Plug-In . SVG Version: 6.00 Build 0)  -->
<svg version="1.1" id="Livello_1" xmlns="http://www.w3.org/2000/svg" xmlns:xlink="http://www.w3.org/1999/xlink" x="0px" y="0px"
	 viewBox="0 0 500 500" style="enable-background:new 0 0 500 500;" xml:space="preserve">
<style type="text/css">
	.st0{fill:url(#SVGID_1_);}
	.st1{fill:#FFFFFF;}
</style>
<linearGradient id="SVGID_1_" gradientUnits="userSpaceOnUse" x1="19.8609" y1="250" x2="469.6293" y2="250">
	<stop  offset="5.807070e-03" style="stop-color:#E30613"/>
	<stop  offset="0.9707" style="stop-color:#EA5818"/>
</linearGradient>
<path class="st0" d="M443.5,486.9H56.5c-24,0-43.4-19.4-43.4-43.4V56.5c0-24,19.4-43.4,43.4-43.4h386.9c24,0,43.4,19.4,43.4,43.4
	v386.9C486.9,467.4,467.4,486.9,443.5,486.9z"/>
<path class="st1" d="M415.9,133.6c0,5.4,0.2,10.7,0,16.1c-0.5,9.7-1.1,19.3-1.9,29c-1.9,24.4-6,48.5-12.3,72.2
	c-8.7,32.7-21.1,63.9-39.4,92.6c-23.1,36.4-53.9,64.4-92.7,83.3c-4.2,2-8.4,3.8-12.6,5.7c-4.5,2-9,2-13.6,0
	c-20.3-8.5-39.1-19.6-56.1-33.5c-26-21.2-46-47.3-61.4-76.9c-15.3-29.5-25.8-60.6-32-93.2c-2.5-13.1-4.6-26.2-6.2-39.4
	c-1.3-10.5-1.9-21-2.5-31.5c-0.6-9.8-0.8-19.7-1-29.5c-0.1-2.9,0.3-5.9,0.8-8.8c1-6.4,4.6-11,10.5-13.7c11.3-5.3,22.5-10.7,34-15.6
	c20.5-8.6,41.7-14.9,63.6-19c9.8-1.8,19.7-3.1,29.5-4.1c7.4-0.8,14.9-1.1,22.3-1.2c8.8-0.1,17.7-0.1,26.5,0.5
	c32.9,2.3,64.6,9.9,95.3,21.9c15,5.9,29.6,12.8,43.8,20.4c3.8,2.1,5.7,5.2,5.6,9.5C415.9,123.4,416,128.5,415.9,133.6
	C416,133.6,415.9,133.6,415.9,133.6z M404.1,127.5c-0.8,0.1-1,0.1-1.3,0.2c-25.5,6.9-42.6,22.8-50.7,48c-2.5,7.6-4.3,15.5-6.8,23.1
	c-13.5,41.1-33.5,78.8-60.2,112.9c-24.3,31-52.8,57.5-85.5,79.4c-0.6,0.4-1.1,0.8-1.8,1.2c0.8,0.7,1.3,1.2,1.9,1.6
	c3.5,2.6,7.1,5.1,10.5,7.8c1.3,1,2.2,0.9,3.5,0c30.4-21,57.3-45.8,80.5-74.5c34.4-42.5,58.9-90.1,73.1-142.9
	c5.1-19.1,16.3-32.4,35.1-39.1c0.6-0.2,1.3-1.3,1.4-2c0.3-3.5,0.3-7,0.4-10.5C404.1,131.1,404.1,129.4,404.1,127.5z M401.8,176.8
	c-3.2,2.2-6.2,7-7.3,11.5c-12.1,46.1-31.4,88.9-58.3,128.3c-25.3,37.1-55.9,69.1-91.6,96.2c-2.2,1.7-4.4,3.3-6.8,5.1
	c4.2,1.7,7.7,4.3,12.1,4.4c3.6,0.1,6.6-1.4,9.5-3c4.7-2.4,9.9-4.4,14-7.7c12.9-10.5,24.8-22.1,36.1-34.2
	C334,351,355,322,372.2,290.4c3.8-7,7.8-13.9,10.4-21.3c3.7-10.3,6.6-20.9,9-31.6c2.9-12.6,5.1-25.5,7.2-38.2
	C400.2,192,400.9,184.6,401.8,176.8z M258.1,78c-5.8,0-11.4,0.1-17,0c-2.2,0-3.1,1-4,2.8c-5.5,11-10.1,22.4-12.9,34.4
	c-2.3,9.7-3.8,19.5-6.2,29.2c-12,48-37.8,87.4-75.4,119.2c-6.4,5.4-13.5,10.2-20.2,15.3c-0.5,0.4-1.2,1.3-1,1.7
	c1.8,5.1,3.8,10.1,5.8,15.3c0.9-0.6,1.6-1,2.2-1.4c30.4-19.9,55.5-45.2,75.1-75.8c16.7-26,27.8-54.3,33.2-84.8
	c3-17.1,8.1-33.4,16.4-48.7C255.4,82.8,256.7,80.5,258.1,78z M365.1,100.6c-0.3-0.2-0.7-0.3-1.2-0.5c-5.8-2.1-11.7-4.2-17.5-6.3
	c-1.5-0.6-2.7-0.3-4,0.6c-14.3,10.5-24.4,24.1-29.3,41.2c-2.4,8.3-3.7,16.9-5.6,25.2c-9.5,40.5-26.3,77.8-50.6,111.6
	c-6.5,9-13.7,17.5-20.7,26.1c-2.2,2.7-2.9,5.5-1.8,8.7c2.2,6.2,10.1,7.6,14.5,2.6c9.5-10.6,18.2-21.8,26.1-33.6
	c26.6-39.3,44.1-82.3,52.7-129c3.1-17,11.8-30.4,25.9-40.1C357.3,104.7,361.3,102.8,365.1,100.6z M112.3,252.7
	c0.8-0.5,1.3-0.9,1.9-1.3c17.6-12.8,32.8-28.1,45.6-45.7c17.4-23.8,29-50.2,34.3-79.3c2.7-15.1,6.6-29.8,12.4-44
	c0.2-0.4,0.2-0.8,0.4-1.6c-6.3,1.1-12.3,2.2-18.3,3.4c-0.7,0.1-1.5,1-1.8,1.8c-4,10.9-7,22.1-8.9,33.6c-2.9,17.8-8.3,34.7-16.4,50.8
	c-12.1,23.8-28.4,44.2-49.3,60.9c-3.5,2.8-4.7,5.3-3.1,9.5C110.4,244.6,111.2,248.6,112.3,252.7z M147.2,334.8
	c1.1-0.6,1.8-1.1,2.5-1.5c27.7-17.3,51.9-38.7,72.5-64c11.7-14.3,21.8-29.7,30.7-45.9c2.9-5.3,0.9-10.2-2.9-12.3
	c-4.5-2.5-9.4-0.9-12.1,4.1c-0.4,0.7-0.8,1.4-1.2,2.1c-21.4,38.7-50.2,70.6-86.6,95.7c-3.6,2.5-7.4,4.9-11.3,7.5
	C141.7,325.1,144.4,329.9,147.2,334.8z M101.8,204.5c0.8-0.6,1.1-0.9,1.5-1.2c20.3-19.3,35.4-42,43.2-69c2.5-8.8,4-17.8,6-26.8
	c1.1-4.8,2.2-9.6,3.4-14.5c-0.7,0.2-1.3,0.3-1.8,0.5c-5.1,1.8-10.2,3.6-15.3,5.3c-1.7,0.5-2.4,1.5-2.7,3.2c-1.2,6.5-2.4,13-3.8,19.4
	c-5.2,23-16.2,43.1-32,60.6c-0.9,1-1.2,2-1,3.4c0.5,2.8,0.7,5.6,1.1,8.4C100.8,197.2,101.3,200.7,101.8,204.5z M308.6,83.9
	c-0.6-0.2-0.9-0.4-1.3-0.5c-5-0.8-10-1.5-15-2.6c-2.2-0.5-3.3,0.3-4.5,2c-7.1,9.6-12.8,20-16.9,31.2c-3.1,8.5-4.8,17.3-6.7,26.2
	c-2,9.9-4.7,19.7-7.2,29.5c-1.6,6,2.7,11.6,8.6,11.2c3.7-0.3,6.8-2.8,7.8-7c2.9-11.6,6-23.2,8.2-34.9c3.1-16.8,9.3-32.1,19.5-45.8
	C303.5,90.1,306,87.1,308.6,83.9z M164.6,359.4c3.5,4,7,8,10.6,11.9c0.3,0.4,1.6,0.4,2.1,0c9-6.3,18.1-12.6,27-19.1
	c4.1-3,4.6-8.3,1.6-12.1c-3.1-3.9-8.2-4.3-12.3-1.2c-3.6,2.7-7.1,5.5-10.8,8.1C176.8,351.2,170.9,355.1,164.6,359.4z M118.1,107.5
	c-0.5,0.2-1,0.3-1.5,0.5c-4.2,2-8.4,4.2-12.7,6c-4.1,1.6-6.2,4.1-6.6,8.7c-0.4,4.9,1.9,9.3,6.4,10.3c4.5,1,9.2-1.8,10.3-6.5
	C115.6,120.2,116.8,113.9,118.1,107.5z M96.6,151.2c0.2,4,0.4,7.7,0.6,11.5C101.3,160.3,100.8,153.2,96.6,151.2z"/>
</svg>
